<svg xmlns="http://www.w3.org/2000/svg" xmlns:xlink="http://www.w3.org/1999/xlink" width="188.703" height="48.437" viewBox="0 0 188.703 48.437">
  <defs>
    <clipPath id="clip-path">
      <path id="Path_58" data-name="Path 58" d="M0,0H64.438V46.149H0Z" fill="#8bc34a"/>
    </clipPath>
    <clipPath id="clip-path-2">
      <rect id="Rectangle_20" data-name="Rectangle 20" width="121.703" height="38.474" fill="#f2f5f7"/>
    </clipPath>
  </defs>
  <g id="Group_11" data-name="Group 11" transform="translate(-99 -15.926)">
    <g id="Group_8" data-name="Group 8" transform="translate(99 15.926)">
      <g id="Mask_Group_1" data-name="Mask Group 1" clip-path="url(#clip-path)">
        <path id="Path_50" data-name="Path 50" d="M24.663,24.635a19.5,19.5,0,0,1,3.531,6.009c.946,2.582.794,6.076.441,9.453a.424.424,0,0,0,.306.454,2.94,2.94,0,0,0,1.8-.011.423.423,0,0,0,.3-.444c-.486-5.923-.774-11.916,1.1-17.564,4.881,3.367,11.73,3.543,15.4-1.883C52.859,12.8,52.161,4.814,64.438,5.732,36.747-9.947,21.957,10.455,29.693,20.275a33.753,33.753,0,0,1,2.91-4.7A29.991,29.991,0,0,1,44.75,5.751a25.013,25.013,0,0,1,4.392-1.421,23.462,23.462,0,0,0-2.648.95,27.558,27.558,0,0,0-11.165,9.027q-.241.326-.474.659a31.248,31.248,0,0,0-5.685,15.1,20.529,20.529,0,0,0-8.141-9.46q-.232-.146-.467-.285A18.186,18.186,0,0,0,11.214,17.7a15.812,15.812,0,0,0-1.914.13,16.992,16.992,0,0,1,3.135-.313,19.791,19.791,0,0,1,10.171,2.854,22.067,22.067,0,0,1,3.034,2.164C28.023,14.2,13.491,5.4,0,22.93c7.517-3.965,9.109,1.268,14.461,4.762,3.7,2.414,7.977.415,10.2-3.057Z" transform="translate(0 0)" fill="#95d14f"/>
        <path id="Path_51" data-name="Path 51" d="M69.21,172.642a9.864,9.864,0,0,0,3.914,0,4.936,4.936,0,0,1,3.968.392c5.229,2.692,6.117,2.75,11.039,3.361a.183.183,0,0,1,0,.363,137.924,137.924,0,0,1-33.93,0,.183.183,0,0,1,0-.363c4.922-.611,5.81-.669,11.04-3.361a4.936,4.936,0,0,1,3.968-.392" transform="translate(-41.271 -131.655)" fill="#627e8c"/>
      </g>
    </g>
    <g id="Group_10" data-name="Group 10" transform="translate(166 25.889)">
      <g id="Group_9" data-name="Group 9" transform="translate(0 0)" clip-path="url(#clip-path-2)">
        <path id="Path_52" data-name="Path 52" d="M19.971,30.022q0,2.956-3.046,5.191a12.058,12.058,0,0,1-7.336,2.235,18.59,18.59,0,0,1-5.137-.667A18.087,18.087,0,0,1,0,34.816q.4-.468.919-1.136t.919-1.208q.4-.541.829-1.226.289-.468.685-1.225l1.334.685-.5,2.055a8.179,8.179,0,0,0,2.235,1.225,11.625,11.625,0,0,0,3.857.541,6.332,6.332,0,0,0,3.389-.847,2.7,2.7,0,0,0,1.37-2.433,2.452,2.452,0,0,0-1.658-2.307q-.794-.36-1.947-.775T8.9,27.318a18.091,18.091,0,0,1-5.137-2.109A4.7,4.7,0,0,1,1.514,20.9q0-2.775,2.92-4.668a12.179,12.179,0,0,1,6.777-1.893,24.747,24.747,0,0,1,4.4.4q.937.181,1.748.379t1.532.45l-1.767,4.867-1.478-.252V18.45a13.319,13.319,0,0,0-2.452-.991,9.661,9.661,0,0,0-2.884-.487,4.855,4.855,0,0,0-3.064.829A2.439,2.439,0,0,0,6.2,19.891a2.377,2.377,0,0,0,1.226,1.875,14.741,14.741,0,0,0,4.29,1.514q4.614,1.01,6.435,2.613a5.254,5.254,0,0,1,1.82,4.128" transform="translate(0 -9.104)" fill="#f2f5f7"/>
        <path id="Path_53" data-name="Path 53" d="M64.834,36.3v2.731q0,1.474.037,2.48a15.371,15.371,0,0,0,.18,1.9l.252,1.976,2.668.467v1.437l-5.552-.072-5.191.108V45.885l2.271-.469.216-1.982q.072-.9.145-2.073t.072-2.325V22.7q0-.757-.036-1.568t-.145-1.568l-.216-2.523L56.867,16.5V15.062a11.739,11.739,0,0,0,1.658-.108q1.153-.216,1.694-.288,1.19-.181,1.766-.307t1.622-.414h1.478l-.252,3.28a8.614,8.614,0,0,1,3.151-2.379,9.61,9.61,0,0,1,1.72-.559,7.919,7.919,0,0,1,1.72-.2,8.011,8.011,0,0,1,6.483,2.97,11.753,11.753,0,0,1,2.463,7.756,12.413,12.413,0,0,1-3.324,8.674A11.588,11.588,0,0,1,73.4,36.207a10.224,10.224,0,0,1-4.336.917,12.859,12.859,0,0,1-2.114-.172,8.77,8.77,0,0,1-2.114-.657m0-3.1,1.154.651a6.648,6.648,0,0,0,1.478.47,9.762,9.762,0,0,0,1.983.181,4.784,4.784,0,0,0,4-2.446,11.331,11.331,0,0,0,1.622-6.079,13.12,13.12,0,0,0-.379-3.381A8.231,8.231,0,0,0,73.45,19.96a4.988,4.988,0,0,0-4.326-2.3,3.668,3.668,0,0,0-3.19,1.55,7.741,7.741,0,0,0-1.1,4.507Z" transform="translate(-36.102 -8.853)" fill="#f2f5f7"/>
        <path id="Path_54" data-name="Path 54" d="M127.163,28.345q0,1.475.036,2.465t.216,2.375a10.5,10.5,0,0,0,.253,1.529l2.7.468V36.62l-5.66-.072-5.191.108V35.214l2.271-.469.216-1.982q.072-.9.144-2.073t.072-2.325v-5.66q0-.757-.036-1.568t-.145-1.568l-.216-2.523L119.16,16.5V15.063a10.711,10.711,0,0,0,1.586-.108q1.045-.216,1.55-.288,1.045-.18,1.622-.307t1.55-.414h1.262l-.144,6.345a8.537,8.537,0,0,1,5.173-5.8,5.747,5.747,0,0,1,2.109-.4,4.958,4.958,0,0,1,.847.072q.414.073.883.2a1.887,1.887,0,0,1,.757.379l-1.262,3.172-.685,2.379q-1.442-.324-1.478-.649v-.649q0-.865-.267-.974a1.99,1.99,0,0,0-.73-.108q-1.923,0-3.347,2.267a10.285,10.285,0,0,0-1.424,5.577Z" transform="translate(-75.648 -8.853)" fill="#f2f5f7"/>
        <path id="Path_55" data-name="Path 55" d="M189.012,25.858a11.142,11.142,0,0,1-3.245,8.351,13.2,13.2,0,0,1-17.159,0,11.142,11.142,0,0,1-3.244-8.351,11.122,11.122,0,0,1,3.263-8.332,11.682,11.682,0,0,1,8.525-3.186,11.807,11.807,0,0,1,8.616,3.167,11.143,11.143,0,0,1,3.245,8.35m-5.3,0a10.726,10.726,0,0,0-1.775-6.44,5.613,5.613,0,0,0-4.786-2.446,5.546,5.546,0,0,0-4.732,2.429,10.784,10.784,0,0,0-1.757,6.457,10.758,10.758,0,0,0,1.774,6.4,5.524,5.524,0,0,0,4.715,2.482,5.653,5.653,0,0,0,4.751-2.428,10.552,10.552,0,0,0,1.81-6.458" transform="translate(-104.98 -9.104)" fill="#f2f5f7"/>
        <path id="Path_56" data-name="Path 56" d="M249,17.759V32.8a6.321,6.321,0,0,0,.036.756q.036.288.288,1.4l2.307.468-.036,1.478-3.562-.108-3.756.108V32.8a10.856,10.856,0,0,1-3.55,3.434,8.406,8.406,0,0,1-4.236,1.144,6.363,6.363,0,0,1-4.686-1.871,6.431,6.431,0,0,1-1.875-4.751V22.908q0-1.619-.144-3.167a8.97,8.97,0,0,0-.108-1.493q-.108-.629-.145-.846l-2.667-.5V15.422q.865,0,1.28-.036t2.037-.36a19.9,19.9,0,0,0,3.244-.685h1.839l-.361,7.3v5.793a9.538,9.538,0,0,0,.937,4.732,3.115,3.115,0,0,0,2.884,1.6,4.4,4.4,0,0,0,3.948-2.231,11.3,11.3,0,0,0,1.388-6.008V22.905q0-.72-.036-1.511t-.145-1.655l-.216-2.338L241,16.9V15.422a9.833,9.833,0,0,0,1.388-.09q.63-.09,1.748-.306a22.773,22.773,0,0,0,3.172-.685h1.875Z" transform="translate(-144.025 -9.104)" fill="#f2f5f7"/>
        <path id="Path_57" data-name="Path 57" d="M301.033,19.775a9.125,9.125,0,0,0,.577,3.813,1.951,1.951,0,0,0,1.983,1.151,3.931,3.931,0,0,0,1.586-.386,6.527,6.527,0,0,0,1.334-.948l1.334,1.442a7.9,7.9,0,0,1-2.091,2.127,6.524,6.524,0,0,1-4.146,1.3,5.662,5.662,0,0,1-4.073-1.475,5.592,5.592,0,0,1-1.442-4.03V8.228H293.21V6.748l2.884-.9-.181-4.763L301.213,0l-.18,5.84,5.876-.207-1.154,2.739-4.723-.144Z" transform="translate(-186.143 0)" fill="#f2f5f7"/>
      </g>
    </g>
  </g>
</svg>
