<svg id="Group_2" data-name="Group 2" xmlns="http://www.w3.org/2000/svg" xmlns:xlink="http://www.w3.org/1999/xlink" width="210.46" height="200.5" viewBox="0 0 210.46 200.5">
  <defs>
    <clipPath id="clip-path">
      <rect id="Rectangle_7" data-name="Rectangle 7" width="210.46" height="200.5" fill="none"/>
    </clipPath>
  </defs>
  <g id="Group_1" data-name="Group 1" clip-path="url(#clip-path)">
    <path id="Path_1" data-name="Path 1" d="M106.971,65.827A52.108,52.108,0,0,1,116.4,81.883c2.527,6.9,2.121,16.235,1.178,25.26a1.132,1.132,0,0,0,.816,1.214,7.857,7.857,0,0,0,4.821-.028,1.129,1.129,0,0,0,.81-1.185c-1.3-15.827-2.069-31.84,2.944-46.931,13.043,9,31.342,9.468,41.148-5.031,14.19-20.985,12.323-42.316,45.128-39.863-73.99-41.894-113.51,12.62-92.84,38.859a90.188,90.188,0,0,1,7.776-12.557,80.137,80.137,0,0,1,32.458-26.254,66.834,66.834,0,0,1,11.734-3.8,62.69,62.69,0,0,0-7.076,2.54A73.635,73.635,0,0,0,135.468,38.23q-.644.87-1.267,1.761a83.5,83.5,0,0,0-15.189,40.34A54.854,54.854,0,0,0,97.26,55.053q-.62-.39-1.248-.763a48.594,48.594,0,0,0-24.977-7,42.25,42.25,0,0,0-5.115.347A45.4,45.4,0,0,1,74.3,46.8a52.882,52.882,0,0,1,27.176,7.626,58.963,58.963,0,0,1,8.107,5.784c6.37-22.265-32.461-45.786-68.509,1.063C61.158,50.676,65.41,64.659,79.712,74c9.882,6.451,21.316,1.108,27.259-8.169Z" transform="translate(-15.136 0)" fill="#8bc34a"/>
    <path id="Path_2" data-name="Path 2" d="M135.639,173.052a26.357,26.357,0,0,0,10.457,0,13.19,13.19,0,0,1,10.6,1.047c13.972,7.194,16.345,7.347,29.5,8.98a.489.489,0,0,1,0,.969,368.534,368.534,0,0,1-90.66,0,.489.489,0,0,1,0-.969c13.153-1.633,15.525-1.786,29.5-8.98a13.188,13.188,0,0,1,10.6-1.047" transform="translate(-35.053 -63.535)" fill="#37474f"/>
    <path id="Path_3" data-name="Path 3" d="M34.536,253.614q0,5.111-5.268,8.977a20.852,20.852,0,0,1-12.686,3.865A32.146,32.146,0,0,1,7.7,265.3a31.277,31.277,0,0,1-7.7-3.4q.685-.81,1.589-1.964t1.59-2.088q.685-.935,1.433-2.12.5-.809,1.185-2.119L8.1,254.8l-.873,3.554a14.143,14.143,0,0,0,3.865,2.119,20.1,20.1,0,0,0,6.67.935,10.951,10.951,0,0,0,5.861-1.465A4.668,4.668,0,0,0,26,255.733a4.24,4.24,0,0,0-2.867-3.99q-1.372-.622-3.366-1.341T15.4,248.939a31.283,31.283,0,0,1-8.883-3.647,8.128,8.128,0,0,1-3.9-7.45q0-4.8,5.05-8.073a21.061,21.061,0,0,1,11.72-3.273,42.8,42.8,0,0,1,7.606.686q1.62.313,3.023.655t2.649.779l-3.055,8.416-2.556-.436V233.6a23.032,23.032,0,0,0-4.24-1.714,16.708,16.708,0,0,0-4.987-.842,8.4,8.4,0,0,0-5.3,1.433,4.218,4.218,0,0,0-1.808,3.616q0,1.747,2.12,3.242a25.491,25.491,0,0,0,7.419,2.618q7.978,1.747,11.128,4.519a9.086,9.086,0,0,1,3.148,7.139" transform="translate(0 -83.473)" fill="#273338"/>
    <path id="Path_4" data-name="Path 4" d="M70.644,264.751v4.722q0,2.549.063,4.288a26.582,26.582,0,0,0,.311,3.293l.436,3.417,4.613.808v2.485l-9.6-.125-8.977.188v-2.494l3.928-.811.373-3.428q.125-1.56.25-3.585t.124-4.021v-28.24q0-1.309-.062-2.711t-.25-2.712l-.374-4.363-4.613-.935v-2.494a20.3,20.3,0,0,0,2.867-.187q1.994-.374,2.93-.5,2.057-.313,3.054-.53t2.806-.717H71.08l-.436,5.672a14.9,14.9,0,0,1,5.449-4.114,16.622,16.622,0,0,1,2.975-.967,13.694,13.694,0,0,1,2.975-.343,13.853,13.853,0,0,1,11.21,5.136q4.259,5.136,4.259,13.413a21.466,21.466,0,0,1-5.749,15,20.039,20.039,0,0,1-6.311,4.7,17.681,17.681,0,0,1-7.5,1.586,22.238,22.238,0,0,1-3.656-.3,15.166,15.166,0,0,1-3.655-1.136m0-5.369,1.995,1.126a11.5,11.5,0,0,0,2.556.813,16.881,16.881,0,0,0,3.429.313q4.051,0,6.92-4.23a19.6,19.6,0,0,0,2.8-10.513,22.688,22.688,0,0,0-.655-5.846,14.235,14.235,0,0,0-2.15-4.542,8.626,8.626,0,0,0-7.482-3.981,6.343,6.343,0,0,0-5.516,2.68q-1.9,2.68-1.9,7.793Z" transform="translate(-20.958 -83.328)" fill="#273338"/>
    <path id="Path_5" data-name="Path 5" d="M133,251q0,2.551.063,4.262t.373,4.107a18.158,18.158,0,0,0,.437,2.644l4.675.809v2.489l-9.788-.124-8.977.187v-2.494l3.928-.811.374-3.428q.125-1.558.249-3.585t.125-4.02V241.25q0-1.309-.063-2.711t-.25-2.712l-.373-4.363-4.613-.936v-2.493a18.523,18.523,0,0,0,2.743-.188q1.807-.373,2.681-.5,1.807-.312,2.8-.53t2.681-.717h2.182L132,237.073a14.763,14.763,0,0,1,8.946-10.028,9.94,9.94,0,0,1,3.647-.695,8.573,8.573,0,0,1,1.465.124c.477.084.987.2,1.527.343a3.263,3.263,0,0,1,1.309.655l-2.182,5.486-1.185,4.114q-2.494-.56-2.556-1.122v-1.121q0-1.5-.462-1.683a3.442,3.442,0,0,0-1.262-.187q-3.326,0-5.788,3.919A17.786,17.786,0,0,0,133,246.522Z" transform="translate(-43.915 -83.328)" fill="#273338"/>
    <path id="Path_6" data-name="Path 6" d="M206.258,246.413q0,8.964-5.611,14.441t-14.9,5.477q-9.164,0-14.774-5.477t-5.611-14.441q0-8.9,5.642-14.409t14.743-5.509q9.288,0,14.9,5.477t5.611,14.44m-9.164,0q0-6.9-3.069-11.136a9.707,9.707,0,0,0-8.277-4.23,9.591,9.591,0,0,0-8.183,4.2q-3.039,4.2-3.038,11.167,0,6.783,3.068,11.075a9.552,9.552,0,0,0,8.153,4.293,9.775,9.775,0,0,0,8.215-4.2q3.13-4.2,3.131-11.168" transform="translate(-60.943 -83.473)" fill="#273338"/>
    <path id="Path_7" data-name="Path 7" d="M265.143,232.408v26.013a10.93,10.93,0,0,0,.063,1.308q.062.5.5,2.426l3.99.81-.063,2.556-6.159-.187-6.5.187v-7.106a18.774,18.774,0,0,1-6.14,5.938,14.536,14.536,0,0,1-7.326,1.979,11,11,0,0,1-8.1-3.236,11.122,11.122,0,0,1-3.242-8.217V241.312q0-2.8-.249-5.477a15.511,15.511,0,0,0-.187-2.583q-.188-1.088-.25-1.462l-4.613-.871v-2.552q1.5,0,2.213-.063t3.522-.623a34.41,34.41,0,0,0,5.611-1.185h3.179l-.624,12.632v10.018q0,5.415,1.621,8.183a5.386,5.386,0,0,0,4.987,2.768,7.6,7.6,0,0,0,6.827-3.858q2.4-3.857,2.4-10.39v-4.542q0-1.246-.063-2.614t-.25-2.862l-.373-4.044-4.613-.871v-2.551a17,17,0,0,0,2.4-.156q1.089-.155,3.023-.53a39.378,39.378,0,0,0,5.485-1.185h3.242Z" transform="translate(-83.61 -83.473)" fill="#273338"/>
    <path id="Path_8" data-name="Path 8" d="M306.738,246.353q0,4.6,1,6.593a3.373,3.373,0,0,0,3.429,1.991,6.8,6.8,0,0,0,2.743-.667,11.286,11.286,0,0,0,2.307-1.639l2.306,2.494A13.669,13.669,0,0,1,314.9,258.8a11.282,11.282,0,0,1-7.17,2.244,9.791,9.791,0,0,1-7.044-2.551,9.67,9.67,0,0,1-2.494-6.969v-25.14H293.21v-2.559l4.988-1.56-.313-8.237,9.164-1.872-.311,10.1L316.9,221.9l-1.995,4.737-8.167-.249Z" transform="translate(-108.06 -78.188)" fill="#273338"/>
  </g>
</svg>
